<svg width="58" height="58" viewBox="0 0 58 58" fill="none" xmlns="http://www.w3.org/2000/svg">
<circle cx="29" cy="29" r="29" fill="#1F8BFF"/>
<circle cx="29.0003" cy="29" r="27.0667" fill="#FEFEFE"/>
<path d="M20.0969 37.904C20.5379 38.347 21.2559 38.347 21.6979 37.904L35.9669 23.633V37.097C35.9669 37.724 36.4739 38.23 37.0999 38.23C37.7259 38.23 38.2329 37.722 38.2329 37.097V21.097C38.2329 20.361 37.6359 19.764 36.8999 19.764H20.8999C20.2729 19.764 19.7669 20.272 19.7669 20.897C19.7669 21.524 20.2749 22.031 20.8999 22.031H34.3639L20.0959 36.302C19.6529 36.743 19.6529 37.462 20.0959 37.903L20.0969 37.904Z" fill="#1F8BFF"/>
</svg>
